<svg xmlns="http://www.w3.org/2000/svg" viewBox="0 0 512 512">
  <defs><linearGradient id="g" x1="0" y1="0" x2="1" y2="1"><stop stop-color="#ff775f"/><stop offset="1" stop-color="#ffb24c"/></linearGradient></defs>
  <rect width="512" height="512" rx="120" fill="#111827"/>
  <path d="M256 74c92 0 164 82 164 190 0 117-64 174-164 174S92 381 92 264C92 156 164 74 256 74Z" fill="url(#g)"/>
  <circle cx="203" cy="250" r="17" fill="#111827"/><circle cx="309" cy="250" r="17" fill="#111827"/>
  <path d="M224 306c20 18 44 18 64 0" fill="none" stroke="#111827" stroke-width="14" stroke-linecap="round"/>
  <path d="M171 123 132 72l74 27M341 123l39-51-74 27" fill="#ff9060" stroke="#111827" stroke-width="12" stroke-linejoin="round"/>
  <circle cx="256" cy="438" r="16" fill="#58d3b7"/>
</svg>
